<svg width="27" height="18" viewBox="0 0 27 18" fill="none" xmlns="http://www.w3.org/2000/svg">
<g clip-path="url(#clip0_1_6173)">
<path fill-rule="evenodd" clip-rule="evenodd" d="M13.2564 4.00026C13.4406 4.00026 13.6698 4.09206 13.9458 4.36746L19.323 9.74406C20.1954 10.6177 19.6902 11.3041 18.543 11.2147H13.2564L16.4274 14.4775H23.1828C25.251 14.5693 26.9028 12.6391 24.8376 10.6633L15.4176 1.28766C14.6322 0.505861 13.9458 6.10352e-05 13.2564 6.10352e-05C12.567 6.10352e-05 11.8764 0.505861 11.0964 1.28766L1.6764 10.6627C-0.391199 12.6385 1.2624 14.5687 3.3306 14.4763H10.0854L13.2564 11.2141H7.9716C6.8226 11.3059 6.3168 10.6141 7.1916 9.74346L12.5682 4.36746C12.8436 4.09206 13.074 4.00026 13.2576 4.00026" fill="#2A58A3"/>
<path fill-rule="evenodd" clip-rule="evenodd" d="M13.2239 7.13507C13.6103 7.13483 13.988 7.24918 14.3094 7.46365C14.6308 7.67811 14.8814 7.98307 15.0295 8.33995C15.1776 8.69683 15.2165 9.08961 15.1414 9.46862C15.0662 9.84763 14.8804 10.1958 14.6073 10.4692C14.3343 10.7426 13.9863 10.9289 13.6074 11.0045C13.2285 11.0801 12.8356 11.0417 12.4786 10.894C12.1215 10.7464 11.8163 10.4962 11.6014 10.175C11.3865 9.85389 11.2717 9.47626 11.2715 9.08987C11.2716 8.57206 11.4774 8.07549 11.8435 7.70928C12.2096 7.34307 12.7061 7.13719 13.2239 7.13687" fill="#E6363B"/>
<path fill-rule="evenodd" clip-rule="evenodd" d="M13.2355 18.0001H23.1157C24.7243 17.9539 25.1383 17.5405 26.4709 14.9209C24.6325 16.6669 24.2191 16.7587 23.1157 16.7587H3.35532C2.25252 16.7587 1.83852 16.6669 0.00012207 14.9209C1.33272 17.5405 1.74672 17.9539 3.35532 18.0001H13.2355Z" fill="#2A58A3"/>
<path d="M21.7922 16.0589H22.0922V16.2653H21.7922V16.0589ZM21.7922 15.4637H22.0922V15.6707H21.7922V15.4637ZM19.91 15.8945C19.91 15.5603 20.4242 15.5825 20.4242 15.5825L20.4842 15.7295C20.4326 15.7169 20.1692 15.7121 20.1584 15.8933C20.1601 15.9395 20.1799 15.9831 20.2136 16.0148C20.2473 16.0465 20.2921 16.0636 20.3384 16.0625H20.3492C20.3943 16.065 20.4394 16.0572 20.4811 16.0395C20.5227 16.0218 20.5597 15.9948 20.5892 15.9605V15.4637H19.7552V15.3167H21.6002V15.4637H20.8406V15.6845C20.9156 15.6282 21.0079 15.5997 21.1016 15.6041C21.317 15.6041 21.4982 15.7379 21.4982 15.8981C21.4982 16.1069 21.2036 16.2971 21.2036 16.2971L21.014 16.1963C21.02 16.1963 21.2468 16.0577 21.2468 15.9017C21.2462 15.881 21.2416 15.8607 21.2332 15.8418C21.2248 15.823 21.2128 15.8059 21.1978 15.7917C21.1828 15.7775 21.1651 15.7664 21.1458 15.759C21.1266 15.7516 21.106 15.7481 21.0854 15.7487H21.0764C21.0307 15.7535 20.9864 15.7677 20.9464 15.7903C20.9064 15.8129 20.8714 15.8435 20.8436 15.8801V16.4147H20.5886V16.1573C20.3066 16.2905 19.91 16.1699 19.91 15.8963V15.8945ZM19.7198 14.8541V14.9639C19.6749 14.9494 19.6276 14.9436 19.5806 14.9471C19.3202 14.9471 19.3478 15.2717 19.5524 15.3149H19.388C19.3364 15.2927 19.1978 15.1721 19.2038 15.0623C19.2092 14.8685 19.5038 14.7587 19.7198 14.8559V14.8541ZM19.088 15.3173H19.7144V15.4649H19.5674V16.4111H19.3058V15.4631H19.0904V15.3161L19.088 15.3173ZM18.6032 15.6641C18.638 15.6675 18.6731 15.6626 18.7057 15.6497C18.7382 15.6369 18.7672 15.6165 18.7904 15.5903C18.8078 15.4487 18.4364 15.3923 18.4364 15.5603C18.4394 15.6227 18.5186 15.6641 18.6032 15.6641ZM17.9882 15.3191H19.085V15.4661H18.9518C19.1846 15.7007 18.9686 16.0499 18.584 16.0721C18.5948 16.0721 18.6776 16.1321 18.74 16.1693C18.8504 16.2293 18.9494 16.2851 18.9548 16.2893L18.8078 16.4243C18.5534 16.3271 18.3368 16.1417 18.1394 15.9911L18.3032 15.8711L18.3992 15.9311C18.4336 15.9471 18.4724 15.9516 18.5096 15.9437C18.7364 15.9071 18.7736 15.8063 18.779 15.7583C18.5156 15.8945 18.0992 15.6983 18.2552 15.4643H17.9942L17.9882 15.3191ZM16.5596 15.3191H17.9936V15.4661H17.7218V15.7661H17.1188C17.0838 15.762 17.0487 15.772 17.0212 15.7938C16.9936 15.8157 16.9758 15.8475 16.9718 15.8825V15.8885C16.9718 16.0871 17.3426 16.1579 17.4164 16.1195C17.4156 16.0953 17.4196 16.0713 17.4283 16.0487C17.437 16.0262 17.4501 16.0057 17.4669 15.9883C17.4837 15.9709 17.5038 15.9571 17.5261 15.9477C17.5483 15.9383 17.5722 15.9335 17.5964 15.9335H17.618C17.8106 15.9335 17.8442 16.1615 17.6744 16.2071C17.6947 16.2463 17.7195 16.2832 17.7482 16.3169C17.7878 16.3709 17.8592 16.4489 17.8592 16.4489H17.5922C17.5922 16.4489 17.5496 16.3889 17.5268 16.3511C17.504 16.3133 17.4986 16.2953 17.4818 16.2677C17.4704 16.2719 16.7144 16.2953 16.7192 15.8711C16.7192 15.7349 16.8842 15.6233 17.0738 15.6233H17.4602V15.4637H16.5602V15.3167L16.5596 15.3191ZM16.1186 15.9677V16.0949L15.4898 16.4093L15.3428 16.2671L16.1186 15.9677ZM15.8618 16.1009C15.5246 16.0967 15.4166 15.8663 15.4166 15.8009V15.4649H15.2288V15.3179H16.5302V15.4649H16.3832V16.4111H16.1282V16.0511C16.0474 16.0924 15.957 16.111 15.8666 16.1051L15.8618 16.1009ZM16.1252 15.4631H15.6764V15.8081C15.6764 15.8873 15.7328 15.9629 15.8768 15.9677C15.9242 15.968 15.9713 15.9583 16.0148 15.9393C16.0583 15.9202 16.0973 15.8923 16.1294 15.8573L16.1252 15.4631ZM14.5982 15.3161H15.224V15.4631H15.0764V16.4093H14.8154V15.4631H14.6012V15.3161H14.5982ZM14.0678 15.5999V15.7271C14.0078 15.7319 13.7192 15.7061 13.7192 15.5117C13.7192 15.3809 13.889 15.2915 14.0792 15.2963C14.3258 15.2963 14.5334 15.4499 14.5334 15.6311C14.5334 15.8123 14.2934 15.9761 14.0624 15.9671C14.0624 15.9671 14.1362 16.0811 14.3486 16.0763C14.4421 16.0723 14.5339 16.0498 14.6186 16.0099C14.7033 15.97 14.7791 15.9137 14.8418 15.8441V16.0841C14.4422 16.3403 13.7966 16.2137 13.6862 15.8063C13.7648 15.8249 13.8454 15.8342 13.9262 15.8339C14.0906 15.8339 14.2802 15.7739 14.2802 15.6137C14.2815 15.5677 14.2646 15.5231 14.2333 15.4894C14.202 15.4557 14.1587 15.4357 14.1128 15.4337C14.1024 15.4328 14.0919 15.4328 14.0816 15.4337C13.9196 15.4397 13.9136 15.6029 14.075 15.6029L14.0678 15.5999ZM13.0046 16.1003C12.668 16.0967 12.5636 15.8657 12.5636 15.8003V15.4673H12.3764V15.3203H13.6766V15.4673H13.5296V16.4135H13.2746V16.0535C13.1926 16.0954 13.1006 16.1141 13.0088 16.1075L13.0046 16.1003ZM13.2686 15.4625H12.815V15.8075C12.815 15.8867 12.8714 15.9623 13.0166 15.9671C13.0639 15.9673 13.1108 15.9575 13.1542 15.9385C13.1976 15.9195 13.2366 15.8916 13.2686 15.8567V15.4625ZM10.7816 16.0625H11.0816V16.2689H10.7816V16.0625ZM10.7816 15.4673H11.0816V15.6743H10.7816V15.4673ZM8.89696 15.8999C8.89696 15.5651 9.41176 15.5873 9.41176 15.5873L9.47176 15.7343C9.42016 15.7217 9.15676 15.7175 9.14536 15.8981C9.14682 15.9212 9.15281 15.9438 9.163 15.9646C9.1732 15.9854 9.18739 16.004 9.20478 16.0194C9.22216 16.0347 9.2424 16.0464 9.26432 16.0539C9.28625 16.0614 9.30944 16.0645 9.33256 16.0631H9.34096C9.38611 16.0661 9.43133 16.0585 9.473 16.0409C9.51468 16.0233 9.55165 15.9961 9.58096 15.9617V15.4673H8.74456V15.3203H10.5884V15.4673H9.82936V15.6881C9.90418 15.6318 9.99626 15.6034 10.0898 15.6077C10.3052 15.6077 10.487 15.7415 10.487 15.9017C10.487 16.1105 10.187 16.3007 10.187 16.3007L9.99796 16.1939C10.0034 16.1939 10.2302 16.0553 10.2302 15.8999C10.2291 15.8581 10.2115 15.8185 10.1812 15.7897C10.151 15.7609 10.1105 15.7453 10.0688 15.7463H10.0604C10.0148 15.7512 9.97064 15.7654 9.93072 15.788C9.89079 15.8106 9.85589 15.8411 9.82816 15.8777V16.4123H9.57256V16.1549C9.30016 16.2905 8.89696 16.1699 8.89696 15.8963V15.8999ZM7.31356 15.3227H8.74156V15.4697H8.59456V16.4159H8.33296V15.8549H7.87936V16.0019C7.88039 16.0103 7.8796 16.0189 7.87704 16.027C7.87449 16.0352 7.87023 16.0427 7.86455 16.049C7.85888 16.0554 7.85191 16.0605 7.84412 16.0639C7.83633 16.0674 7.82789 16.0691 7.81936 16.0691C7.81418 16.0697 7.80895 16.0697 7.80376 16.0691C7.71556 16.0649 7.46056 15.8291 7.46056 15.7781C7.46056 15.7049 7.55416 15.7049 7.56556 15.7049H8.32816V15.4649H7.31416L7.31356 15.3227ZM6.68116 15.3227H7.30756V15.4697H7.16056V16.4159H6.90016V15.4631H6.68416L6.68116 15.3227ZM6.27616 15.4697H5.84776V15.7931H6.27856L6.27616 15.4697ZM5.25616 15.3227H6.68416V15.4697H6.54016V16.4159H6.27616V15.9359H5.84776V16.0631C5.84784 16.0727 5.84603 16.0822 5.84242 16.0911C5.83882 16.1 5.83349 16.1082 5.82675 16.115C5.82001 16.1219 5.81198 16.1273 5.80313 16.1311C5.79428 16.1348 5.78478 16.1368 5.77516 16.1369H5.76556C5.69236 16.1369 5.39776 15.8969 5.39776 15.8501C5.39776 15.8033 5.49136 15.7961 5.49736 15.7961H5.59636V15.4679H5.25616V15.3227Z" fill="#E6363B"/>
</g>
<defs>
<clipPath id="clip0_1_6173">
<rect width="26.4708" height="18" fill="white"/>
</clipPath>
</defs>
</svg>
